PathFileType	4	(X/Y/Z)	C:/Users/opensim2020/Desktop/walking_exp_matlab/subject06_walking12_straigt_01.trc																																																																																																																																														
DataRate	CameraRate	NumFrames	NumMarkers	Units	OrigDataRate	OrigDataStartFrame	OrigNumFrames																																																																																																																																										
100	100	6	48	mm	100	819	196																																																																																																																																										
Frame#	Time	LFHD			RFHD			LBHD			RBHD			C7			T10			CLAV			STRN			RBAK			LSHO			LUPA			LELB			LFRM			LWRA			LWRB			LFIN			RSHO			RUPA			RELB			RFRM			RWRA			RWRB			RFIN			LASI			RASI			LPSI			RPSI			LTHI			LKNE			LTIB			LANK			LHEE			LTOE			RTHI			RKNE			RTIB			RANK			RHEE			RTOE			*39			*40			*41			*42			*43			*44			*45			*46			*47		
		X1	Y1	Z1	X2	Y2	Z2	X3	Y3	Z3	X4	Y4	Z4	X5	Y5	Z5	X6	Y6	Z6	X7	Y7	Z7	X8	Y8	Z8	X9	Y9	Z9	X10	Y10	Z10	X11	Y11	Z11	X12	Y12	Z12	X13	Y13	Z13	X14	Y14	Z14	X15	Y15	Z15	X16	Y16	Z16	X17	Y17	Z17	X18	Y18	Z18	X19	Y19	Z19	X20	Y20	Z20	X21	Y21	Z21	X22	Y22	Z22	X23	Y23	Z23	X24	Y24	Z24	X25	Y25	Z25	X26	Y26	Z26	X27	Y27	Z27	X28	Y28	Z28	X29	Y29	Z29	X30	Y30	Z30	X31	Y31	Z31	X32	Y32	Z32	X33	Y33	Z33	X34	Y34	Z34	X35	Y35	Z35	X36	Y36	Z36	X37	Y37	Z37	X38	Y38	Z38	X39	Y39	Z39	X40	Y40	Z40	X41	Y41	Z41	X42	Y42	Z42	X43	Y43	Z43	X44	Y44	Z44	X45	Y45	Z45	X46	Y46	Z46	X47	Y47	Z47	X48	Y48	Z48
																																																																																																																																																	
25	0.24	-1091.11243	1629.10742	638.1889	-961.48645	1612.61646	649.4173	-1104.72144	1594.53796	778.21863	-975.44434	1583.47083	786.82996	-1055.81787	1431.85608	805.45392	-1042.48364	1105.08203	867.41125	-1048.29895	1343.96533	702.55182	-1056.66089	1166.96667	676.93964	-983.81042	1266.16492	897.57605	-1210.69373	1385.56189	741.6991	-1297.83301	1193.36011	713.24432	-1321.53479	1085.41113	689.81116	-1329.36877	974.64044	588.99066	-1262.11438	916.31891	487.5629	-1312.98914	878.55591	520.04285	-1296.44214	843.51093	438.13803	-890.10919	1380.12073	757.51953	-809.62317	1189.31689	830.33716	-796.59003	1067.91675	840.67029	-775.45795	949.05957	856.75439	-794.52905	796.8255	834.92224	-761.3537	815.133	891.18054	-753.62482	731.59491	876.97437	-1156.37854	933.97144	701.96143	-934.59796	941.37677	689.1059	-1116.23987	970.51147	858.02631	-947.98071	968.33569	841.13293	-1206.84473	634.53174	823.02209	-1187.11353	474.11353	864.37701	-1179.07922	240.38911	979.26587	-1132.45422	77.34653	1036.31897	-1085.21826	70.69994	1078.21948	-1139.25964	31.73631	899.85675	-862.98566	616.6026	678.67639	-890.27893	502.45828	629.11926	-889.36761	254.86961	563.56268	-928.5683	86.32999	484.50684	-978.91315	71.15454	509.69452	-929.2829	44.6833	320.41284	-1038.15063	1679.0863	736.9317	NaN	NaN	NaN	NaN	NaN	NaN	NaN	NaN	NaN	NaN	NaN	NaN	NaN	NaN	NaN	NaN	NaN	NaN	NaN	NaN	NaN	NaN	NaN	NaN
26	0.25	-1089.77271	1628.521	629.01898	-960.02106	1611.78833	640.63818	-1103.28772	1593.27417	768.64551	-973.98499	1581.96436	777.20374	-1054.59656	1430.66699	795.15601	-1041.80652	1103.75647	856.53815	-1047.39575	1342.8623	692.1275	-1055.92126	1165.81018	666.42499	-982.81677	1264.62415	886.95972	-1209.84351	1384.54651	731.6579	-1297.12195	1192.48535	703.57239	-1320.54895	1084.32581	679.96478	-1328.72778	973.81647	579.04419	-1261.76868	915.65845	477.43597	-1312.55176	877.84192	509.97665	-1296.14673	843.0675	427.93759	-888.98755	1378.55847	746.82776	-808.88525	1187.63403	819.51166	-795.784	1066.22974	829.84033	-774.74872	947.38763	846.11499	-794.19379	794.96106	824.79736	-760.59631	813.47168	880.82916	-753.06049	729.96515	866.67615	-1155.55969	932.63367	691.40601	-933.67065	940.25635	678.08087	-1115.57495	969.30969	847.29626	-947.27155	967.42426	830.36621	-1206.30786	633.63727	813.37909	-1186.12231	473.19022	856.34613	-1179.37671	241.66536	974.87665	-1133.24646	79.69743	1035.27209	-1086.41736	73.59809	1077.22449	-1139.4469	31.72646	899.60553	-862.88605	616.54755	666.25031	-889.75854	502.83118	616.3623	-889.37933	252.95837	554.74872	-929.57446	83.75635	478.21207	-979.73401	69.38572	503.6998	-930.30334	39.51547	314.7247	-1036.60876	1677.94214	727.7326	NaN	NaN	NaN	NaN	NaN	NaN	NaN	NaN	NaN	NaN	NaN	NaN	NaN	NaN	NaN	NaN	NaN	NaN	NaN	NaN	NaN	NaN	NaN	NaN
27	0.26	-1088.44983	1628.25488	619.62341	-958.51367	1611.16626	631.01459	-1101.74341	1592.29077	758.98877	-972.52716	1580.6825	767.38562	-1053.23999	1429.65125	784.88776	-1040.96472	1102.67688	845.56616	-1046.31287	1342.052	681.54553	-1055.10962	1165.01758	655.52643	-981.6767	1263.37903	876.24652	-1208.76318	1383.69189	721.48047	-1295.99866	1191.48083	693.88763	-1319.64697	1083.50598	670.29218	-1327.8938	972.84497	569.5769	-1261.35864	914.65234	467.66949	-1311.98059	876.91193	500.37064	-1295.98938	842.13953	418.38162	-887.75867	1377.27112	736.03217	-807.88208	1186.10132	808.41992	-794.84418	1064.70776	818.79388	-773.93848	945.85724	835.14075	-793.56366	793.43958	814.1311	-759.79022	811.93311	870.18024	-752.42194	728.45325	855.97443	-1154.66724	931.46735	680.41833	-932.44275	939.18817	666.87061	-1114.77832	968.31244	836.34869	-946.64178	966.65454	819.1272	-1205.71594	632.79773	803.50262	-1185.83752	472.56921	847.02155	-1179.5929	243.16391	970.01117	-1134.09998	82.39381	1034.00671	-1087.37146	77.17879	1076.37134	-1139.47961	31.70762	899.37152	-862.39221	617.0686	653.75885	-889.15076	503.33322	603.97345	-889.72021	250.93054	546.94495	-931.0827	81.13562	473.82254	-980.84094	65.00007	498.94855	-931.7984	35.82714	309.7475	-1034.97815	1676.98694	718.50323	NaN	NaN	NaN	NaN	NaN	NaN	NaN	NaN	NaN	NaN	NaN	NaN	NaN	NaN	NaN	NaN	NaN	NaN	NaN	NaN	NaN	NaN	NaN	NaN
28	0.27	-1086.90796	1628.15088	610.26062	-956.76038	1610.81909	621.33527	-1100.07471	1591.50818	749.19159	-970.86053	1579.677	757.58624	-1051.79871	1428.83997	774.39398	-1040.06909	1101.8291	834.27155	-1045.09521	1341.48401	670.83612	-1054.21704	1164.38904	644.5777	-980.51355	1262.31921	865.41565	-1207.63635	1383.22266	711.05554	-1294.84656	1190.75635	684.06506	-1318.45288	1082.74683	660.75201	-1327.18958	971.78711	560.30225	-1260.9469	913.3927	458.24631	-1311.45569	875.6781	491.39609	-1296.03235	840.73932	409.43155	-886.4198	1376.18213	725.24329	-806.81012	1184.85632	797.19318	-793.87378	1063.38806	807.5321	-773.026	944.54791	823.97485	-792.81152	792.19775	802.99695	-759.354	810.55444	858.41461	-751.63263	727.16016	844.82269	-1153.74622	930.61511	669.40222	-931.34192	938.43396	655.51086	-1113.89868	967.56763	825.2923	-945.74799	966.14398	807.77295	-1205.00269	631.89532	793.2196	-1185.17737	471.74997	837.36957	-1179.57178	244.72589	964.57861	-1135.0376	85.36807	1032.44531	-1088.52954	81.16507	1075.15527	-1139.48975	31.72433	899.03992	-861.81934	617.94031	641.44293	-888.69641	504.09885	591.97961	-890.5105	248.94672	539.94244	-932.47034	78.27003	470.91318	-980.54163	60.5467	497.86166	-934.00177	34.20656	305.91263	-1033.19104	1676.27466	709.14746	NaN	NaN	NaN	NaN	NaN	NaN	NaN	NaN	NaN	NaN	NaN	NaN	NaN	NaN	NaN	NaN	NaN	NaN	NaN	NaN	NaN	NaN	NaN	NaN
29	0.28	-1085.04688	1628.50122	600.46008	-955.11432	1610.86194	611.52118	-1098.31458	1591.05481	739.40283	-969.1413	1579.02405	747.69019	-1050.21289	1428.43005	763.93408	-1039.17578	1101.28552	822.93561	-1043.76831	1341.25098	660.07764	-1053.12939	1164.1687	633.47601	-979.27765	1261.57727	854.50201	-1206.34302	1383.13354	700.40594	-1293.48254	1190.21191	674.38477	-1317.14575	1082.17542	651.34961	-1326.31201	970.59668	551.5531	-1260.51965	911.74817	449.36591	-1310.8324	874.1449	483.05847	-1295.97314	838.89209	401.08597	-884.90143	1375.42639	714.31671	-805.43835	1183.82349	786.03815	-792.69421	1062.35718	796.11066	-772.01654	943.45032	812.42725	-792.11182	791.06445	791.70721	-757.9295	809.83319	846.88849	-750.68054	726.12402	833.4823	-1152.79993	929.99573	658.23108	-930.26331	938.1795	643.75714	-1112.95996	967.02338	813.89575	-944.68414	966.11401	796.37738	-1204.12158	631.0799	782.77191	-1184.58545	471.23581	826.45746	-1179.47949	246.52472	958.62531	-1135.88135	88.83488	1030.5072	-1089.74292	85.61807	1073.50598	-1139.53467	31.84769	898.53381	-861.22076	618.95795	629.24744	-888.474	505.14291	580.17719	-891.4425	247.39284	533.36609	-934.62476	74.99602	469.6011	-981.8302	55.89064	497.30548	-936.08429	33.23923	303.74255	-1031.28333	1675.97217	699.77466	NaN	NaN	NaN	NaN	NaN	NaN	NaN	NaN	NaN	NaN	NaN	NaN	NaN	NaN	NaN	NaN	NaN	NaN	NaN	NaN	NaN	NaN	NaN	NaN
30	0.29	-1083.26599	1629.13696	590.78192	-953.18866	1611.28235	601.73865	-1096.56384	1591.00208	729.42957	-967.34064	1578.71838	737.64856	-1048.54944	1428.39209	753.29651	-1038.27917	1101.05835	811.3941	-1042.30469	1341.41919	649.17297	-1052.04077	1164.29663	622.35931	-977.92047	1261.15588	843.51923	-1204.97449	1382.91064	690.06409	-1291.96338	1189.93298	664.42731	-1315.61035	1081.61475	642.02649	-1325.37061	969.3822	543.0174	-1260.14771	909.81128	440.93729	-1310.1272	872.49677	475.20206	-1296.0083	836.65405	393.61319	-883.32349	1375.08057	703.38922	-804.20923	1183.10144	774.51794	-791.54181	1061.60645	784.43512	-771.02826	942.65503	800.50549	-791.22852	790.26782	779.94281	-756.93481	808.7915	835.41821	-749.84985	725.27191	821.38293	-1151.88086	929.7478	646.92053	-929.23553	938.52777	631.8941	-1111.99194	966.85742	802.43774	-943.68842	966.53412	784.84424	-1202.99121	630.44769	771.862	-1183.552	470.59836	815.55396	-1179.16187	248.65938	952.20984	-1136.65759	92.80554	1028.18579	-1090.69702	90.73412	1071.52673	-1139.62793	32.10721	897.84528	-860.63647	619.98621	617.25861	-888.55737	506.62137	568.62921	-892.15479	246.5746	526.68555	-936.96051	72.09086	469.53891	-984.1488	51.48346	497.26157	-937.99335	32.59409	303.25278	-1029.31958	1676.02527	690.24152	NaN	NaN	NaN	NaN	NaN	NaN	NaN	NaN	NaN	NaN	NaN	NaN	NaN	NaN	NaN	NaN	NaN	NaN	NaN	NaN	NaN	NaN	NaN	NaN
